<?xml version="1.0" encoding="utf-8"?>
<!-- Generator: Adobe Illustrator 23.0.2, SVG Export Plug-In . SVG Version: 6.00 Build 0)  -->
<svg version="1.1" id="Fantasic" xmlns="http://www.w3.org/2000/svg" xmlns:xlink="http://www.w3.org/1999/xlink" x="0px" y="0px"
	 viewBox="0 0 30 30" style="enable-background:new 0 0 30 30;" xml:space="preserve">
<style type="text/css">
	.st0{fill:url(#SVGID_1_);}
	.st1{fill:none;stroke:#000000;stroke-miterlimit:10;}
	.st2{fill:#231F20;}
	.st3{fill:#FF0600;}
	.st4{fill:#FFFFFF;stroke:#FFB000;stroke-width:0.75;stroke-miterlimit:10;}
</style>
<g>
	<g>
		<radialGradient id="SVGID_1_" cx="14.899" cy="15" r="9" fx="23.8988" fy="14.942" gradientUnits="userSpaceOnUse">
			<stop  offset="0" style="stop-color:#E59E03"/>
			<stop  offset="0" style="stop-color:#E9A710"/>
			<stop  offset="0" style="stop-color:#F5C339"/>
			<stop  offset="0" style="stop-color:#FCD453"/>
			<stop  offset="0" style="stop-color:#FFDA5C"/>
			<stop  offset="1" style="stop-color:#FE9A02"/>
		</radialGradient>
		<circle class="st0" cx="14.9" cy="15" r="9"/>
	</g>
	<line class="st1" x1="22.8" y1="7.1" x2="25" y2="9.3"/>
	<line class="st1" x1="4.8" y1="9.8" x2="7" y2="7.6"/>
	<path class="st2" d="M14.9,22.4c2.3,0,4.3-1.5,5.1-3.5H9.8C10.6,21,12.6,22.4,14.9,22.4z"/>
	<path class="st3" d="M12.7,22c1.1-1.1,3.2-1.3,4.2,0.1c0,0-0.6,0.4-2,0.4C13.6,22.4,12.7,22,12.7,22z"/>
	<g>
		<g>
			<path class="st4" d="M10.9,13.7l3.6,0.7l-2-3.1l1.8-3.2l-3.5,1L8.3,6.5l-0.2,3.6l-3.3,1.5l3.4,1.3l0.4,3.6L10.9,13.7z"/>
		</g>
		<circle class="st2" cx="10.3" cy="11.8" r="0.8"/>
	</g>
	<g>
		<g>
			<path class="st4" d="M19.1,13.7l-3.6,0.7l2-3.1l-1.8-3.2l3.5,1l2.5-2.7l0.2,3.6l3.3,1.5l-3.4,1.3l-0.4,3.6L19.1,13.7z"/>
		</g>
		<circle class="st2" cx="19.7" cy="11.8" r="0.8"/>
	</g>
</g>
</svg>
